<svg width="24" height="24" viewBox="0 0 24 24" fill="none" xmlns="http://www.w3.org/2000/svg">
<path fill-rule="evenodd" clip-rule="evenodd" d="M17.5 12.4737C17.694 12.4737 17.87 12.5798 17.953 12.7465C18.035 12.9123 18.009 13.1094 17.884 13.2505L15.384 16.0926C15.289 16.2006 15.148 16.2632 15 16.2632H9C8.85202 16.2632 8.71102 16.2006 8.616 16.0926L6.11602 13.2505C5.991 13.1094 5.96503 12.9123 6.04702 12.7465C6.13003 12.5798 6.306 12.4737 6.50002 12.4737H17.5ZM9.234 15.3158H14.765L16.432 13.4211H7.56698L9.234 15.3158Z" fill="black"/>
<path fill-rule="evenodd" clip-rule="evenodd" d="M16.9999 18.924L16.723 19.0551C16.654 19.0882 16.577 19.1053 16.5 19.1053H7.5C7.42298 19.1053 7.34597 19.0882 7.27598 19.0551L6.99998 18.9243V19.5789C6.99998 20.3624 6.327 21 5.49998 21H2.49998C1.67297 21 0.999985 20.3624 0.999985 19.5789V18.1579C0.772968 18.1579 0.574968 18.0139 0.516984 17.8064C0.495984 17.7316 0 15.9467 0 13.8947C0 11.8343 0.651362 10.5534 2.10879 9.7683C2.74708 8.38186 4.5383 4.57299 5.17603 4.05917C6.00103 3.39598 8.36405 3 11.5 3H12.5C15.636 3 17.999 3.39598 18.824 4.0601C19.4616 4.57377 21.2509 8.38044 21.8906 9.76795C23.3484 10.5531 24 11.834 24 13.8947C24 15.9467 23.504 17.7316 23.483 17.8064C23.425 18.0139 23.227 18.1579 23 18.1579H22.9999V19.5789C22.9999 20.3624 22.3269 21 21.4999 21H18.4999C17.6729 21 16.9999 20.3624 16.9999 19.5789V18.924ZM21.2844 10.5326C21.2735 10.5277 21.2628 10.5224 21.2523 10.5167C20.0422 9.92912 16.9302 9.63155 12 9.63155C7.07049 9.63155 3.95859 9.929 2.74816 10.5165C2.73765 10.5221 2.72694 10.5274 2.71604 10.5323C1.87141 10.9551 1.37305 11.5539 1.14684 12.4737H2.67202C3.33999 12.4737 3.96699 12.72 4.44 13.1672L6.85402 15.4541C6.99698 15.5896 7.03997 15.7933 6.96197 15.9704C6.88397 16.1476 6.70195 16.2632 6.49997 16.2632H1.20886C1.27463 16.657 1.34367 16.9833 1.39598 17.2105H5.49998C5.577 17.2105 5.65402 17.2276 5.724 17.2607L6.71486 17.7301C6.72043 17.7326 6.72593 17.7352 6.73138 17.7379L7.61798 18.1579H16.382L17.2614 17.7416C17.2716 17.7363 17.282 17.7314 17.2926 17.7268L18.277 17.2607C18.346 17.2276 18.423 17.2105 18.501 17.2105H22.605C22.6569 16.9834 22.7257 16.657 22.7914 16.2632H17.5C17.298 16.2632 17.115 16.1476 17.038 15.9705C16.961 15.7933 17.004 15.5896 17.146 15.4541L19.56 13.1672C20.033 12.72 20.66 12.4737 21.328 12.4737H22.8532C22.627 11.5541 22.1288 10.9553 21.2844 10.5326ZM22 18.1579V19.5789C22 19.8404 21.775 20.0526 21.5 20.0526H18.5C18.225 20.0526 18 19.8404 18 19.5789V18.4505L18.618 18.1579H22ZM5.82403 4.78204C5.51695 5.05329 4.44209 7.13725 3.42675 9.28861C5.10666 8.87833 7.89265 8.68424 12 8.68424C16.1075 8.68424 18.8936 8.87835 20.5734 9.28865C19.558 7.13671 18.4828 5.05304 18.174 4.78013C17.791 4.47225 16.162 3.9474 12.5 3.9474H11.5C7.83802 3.9474 6.20902 4.47225 5.82403 4.78204ZM1.99997 18.1579V19.5789C1.99997 19.8404 2.22497 20.0526 2.49998 20.0526H5.49998C5.775 20.0526 6 19.8404 6 19.5789V18.4506L5.382 18.1579H1.99997ZM21.328 13.4211H22.987C22.9957 13.5723 23 13.7301 23 13.8947C23 14.39 22.9682 14.8723 22.921 15.3158H18.707L20.267 13.837C20.547 13.5727 20.933 13.4211 21.328 13.4211ZM1.01299 13.4211C1.00426 13.5723 0.999985 13.7301 0.999985 13.8947C0.999985 14.39 1.03175 14.8723 1.079 15.3158H5.29294L3.73195 13.8369C3.45295 13.5726 3.06595 13.4211 2.67197 13.4211H1.01299Z" fill="black"/>
</svg>
