<svg width="20" height="19" viewBox="0 0 20 19" fill="none" xmlns="http://www.w3.org/2000/svg">
<path d="M9.77889 1.02632C9.87269 0.848532 10.1273 0.848535 10.2211 1.02632L12.4693 5.28752C12.7226 5.76744 13.1841 6.10276 13.7188 6.19527L18.4661 7.01669C18.6642 7.05096 18.7429 7.29312 18.6028 7.43727L15.2449 10.8923C14.8667 11.2814 14.6904 11.8239 14.7677 12.361L15.4535 17.1299C15.4821 17.3289 15.2761 17.4785 15.0957 17.3898L10.7722 15.2639C10.2852 15.0245 9.71476 15.0245 9.22781 15.2639L4.90429 17.3898C4.7239 17.4785 4.51791 17.3289 4.54652 17.1299L5.23233 12.361C5.30957 11.8239 5.13328 11.2814 4.75509 10.8923L1.3972 7.43727C1.2571 7.29312 1.33578 7.05096 1.53385 7.01669L6.28123 6.19527C6.81592 6.10276 7.27744 5.76745 7.53065 5.28752L9.77889 1.02632Z" stroke="black" stroke-width="1.5"/>
</svg>
