<svg width="16" height="18" viewBox="0 0 16 18" fill="none" xmlns="http://www.w3.org/2000/svg">
<path d="M10.8507 8.34627C12.0606 7.50628 12.8485 6.14686 12.8485 4.61538C12.8485 2.07046 10.6735 0 8 0C5.32654 0 3.15151 2.07046 3.15151 4.61538C3.15151 6.14686 3.93938 7.50628 5.14934 8.34627C2.14161 9.44191 0 12.2179 0 15.4615C0 16.8613 1.19626 18 2.66667 18H13.3333C14.8037 18 16 16.8613 16 15.4615C16 12.2179 13.8584 9.44191 10.8507 8.34627ZM4.60607 4.61538C4.60607 2.83395 6.12859 1.38463 8 1.38463C9.87141 1.38463 11.3939 2.83395 11.3939 4.61538C11.3939 6.39682 9.87141 7.84617 8 7.84617C6.12859 7.84617 4.60607 6.39682 4.60607 4.61538ZM13.3333 16.6154H2.66667C1.99831 16.6154 1.45456 16.0978 1.45456 15.4615C1.45456 12.0258 4.3908 9.23073 8.00004 9.23073C11.6093 9.23073 14.5455 12.0258 14.5455 15.4615C14.5455 16.0978 14.0017 16.6154 13.3333 16.6154Z" fill="black"/>
</svg>
